<svg width="100" height="100" viewBox="0 0 100 100" fill="none" xmlns="http://www.w3.org/2000/svg">
<rect width="100" height="100" rx="24" fill="url(#paint0_linear_5359_37394)"/>
<path d="M68.0537 48.6344C68.0537 46.8604 67.278 45.2188 65.9436 44.1006C66.0218 43.7146 66.0611 43.321 66.0611 42.9234C66.0611 39.8717 63.7423 37.3515 60.7739 37.0325C59.858 34.8702 57.7202 33.4209 55.3182 33.4209C53.3341 33.4209 51.576 34.4022 50.5001 35.9039C49.4242 34.4022 47.6661 33.4209 45.6821 33.4209C43.2801 33.4209 41.1423 34.8702 40.2264 37.0325C37.258 37.3515 34.9391 39.8717 34.9391 42.9234C34.9391 43.321 34.9785 43.7146 35.0566 44.1006C33.7223 45.2188 32.9465 46.8604 32.9465 48.6344C32.9465 50.0796 33.4615 51.4416 34.3875 52.5082C33.452 53.7681 32.9465 55.2876 32.9465 56.8866C32.9465 60.9489 36.2514 64.2538 40.3136 64.2538C40.3205 64.2538 40.3274 64.2538 40.3343 64.2538C40.7437 65.1079 41.3585 65.8648 42.1179 66.4376C43.1517 67.2174 44.3842 67.6296 45.6821 67.6296C47.6661 67.6296 49.4242 66.6483 50.5001 65.1466C51.576 66.6483 53.3341 67.6296 55.3182 67.6296C56.6161 67.6296 57.8485 67.2174 58.8823 66.4376C59.6418 65.8648 60.2565 65.1079 60.6659 64.2538C64.7379 64.2628 68.0537 60.9557 68.0537 56.8866C68.0537 55.2876 67.5483 53.7681 66.6127 52.5082C67.5388 51.4416 68.0537 50.0796 68.0537 48.6344ZM45.5414 65.3806C43.9586 65.3806 42.5303 64.3491 42.0258 62.8581L42.0267 62.8581C41.9 62.4846 41.8303 62.0852 41.8303 61.6695C41.8303 60.8084 42.1317 59.9695 42.6789 59.3073C43.0684 58.8361 43.0021 58.1384 42.5308 57.7489C42.0596 57.3595 41.3619 57.4259 40.9725 57.8971C40.098 58.9551 39.6165 60.2949 39.6165 61.6695C39.6165 61.7721 39.6194 61.874 39.6247 61.9753C37.0401 61.7007 35.0197 59.5078 35.0197 56.8514C35.0197 55.5706 35.4843 54.3634 36.3328 53.4174L36.3338 53.4185C37.1632 52.492 38.3219 51.8663 39.6241 51.7276C39.5876 52.4446 39.6813 53.1695 39.911 53.8724C40.0637 54.3392 40.4971 54.6356 40.963 54.6356C41.0769 54.6356 41.1929 54.6179 41.3071 54.5805C41.8882 54.3905 42.2053 53.7655 42.0153 53.1845C41.3795 51.2394 42.4446 49.1397 44.3896 48.5039C44.9707 48.3139 45.2878 47.6889 45.0978 47.1078C44.9078 46.5267 44.283 46.2094 43.7017 46.3996C43.4484 46.4825 43.2038 46.5824 42.9675 46.6958C42.5265 45.5665 42.8308 44.2324 43.8141 43.4177C44.2848 43.0276 44.3502 42.3298 43.9602 41.859C43.5702 41.3884 42.8723 41.323 42.4016 41.713C41.352 42.5828 40.7039 43.8092 40.5766 45.1665C40.4818 46.1784 40.6854 47.1725 41.1554 48.048C40.8044 48.4358 40.5017 48.8718 40.2587 49.3509C40.2361 49.3954 40.2159 49.4406 40.1945 49.4855C40.1873 49.4853 40.1802 49.4844 40.173 49.4844C38.5483 49.4844 37.045 50.0132 35.8256 50.9076C35.3069 50.2581 35.0197 49.4518 35.0197 48.5993C35.0197 47.3101 35.6745 46.1321 36.7712 45.4481C37.2129 45.1727 37.403 44.6268 37.2279 44.1366C37.0848 43.7359 37.0122 43.3159 37.0122 42.8883C37.0122 40.8419 38.6771 39.1771 40.7234 39.1771C40.7541 39.1771 40.8724 39.1812 40.8845 39.1812C41.3849 39.1812 41.8253 38.8443 41.9542 38.3577C42.3843 36.7337 43.8594 35.5995 45.5414 35.5995C47.5877 35.5995 49.2525 37.2643 49.2525 39.3107V61.6695C49.2525 63.7158 47.5877 65.3806 45.5414 65.3806ZM64.8932 50.9076C63.6738 50.0133 62.1706 49.4844 60.5459 49.4844C60.5387 49.4844 60.5316 49.4853 60.5244 49.4855C60.503 49.4406 60.4827 49.3954 60.4602 49.3509C60.2172 48.8718 59.9145 48.4358 59.5635 48.048C60.0335 47.1725 60.2371 46.1784 60.1422 45.1665C60.015 43.8092 59.3669 42.5828 58.3173 41.713C57.8464 41.323 57.1487 41.3883 56.7587 41.859C56.3687 42.3298 56.4341 43.0276 56.9048 43.4177C57.8881 44.2324 58.1924 45.5665 57.7514 46.6958C57.5151 46.5824 57.2705 46.4825 57.0172 46.3996C56.436 46.2095 55.8111 46.5267 55.6211 47.1078C55.4311 47.6889 55.7482 48.3139 56.3293 48.5039C58.2743 49.1397 59.3394 51.2394 58.7036 53.1845C58.5136 53.7655 58.8307 54.3905 59.4118 54.5805C59.526 54.6179 59.642 54.6356 59.7559 54.6356C60.2218 54.6356 60.6552 54.3392 60.8078 53.8724C61.0376 53.1695 61.1313 52.4446 61.0948 51.7276C62.32 51.8581 63.418 52.42 64.2345 53.2579L64.2353 53.2567C65.1793 54.2247 65.6992 55.4968 65.6992 56.8514C65.6992 59.5078 63.6788 61.7007 61.0941 61.9753C61.0994 61.874 61.1024 61.7721 61.1024 61.6695C61.1024 60.2949 60.6208 58.9551 59.7464 57.8971C59.3571 57.4258 58.6593 57.3595 58.1881 57.7489C57.7168 58.1384 57.6505 58.8361 58.04 59.3073C58.5872 59.9695 58.8886 60.8084 58.8886 61.6695C58.8886 62.0681 58.825 62.452 58.708 62.8121C58.7074 62.8141 58.7067 62.8161 58.7061 62.8181C58.6896 62.8687 58.672 62.9188 58.6535 62.9684C58.1171 64.3997 56.7209 65.3806 55.1775 65.3806C53.1312 65.3806 51.4664 63.7158 51.4664 61.6695V39.3107C51.4664 37.2643 53.1312 35.5995 55.1775 35.5995C56.8595 35.5995 58.3346 36.7337 58.7647 38.3577C58.8968 38.8562 59.3537 39.1987 59.8711 39.1806C59.8711 39.1806 59.9648 39.1771 59.9955 39.1771C62.0418 39.1771 63.7067 40.8419 63.7067 42.8883C63.7067 43.3159 63.6341 43.7359 63.491 44.1366C63.3159 44.6268 63.506 45.1727 63.9476 45.4481C65.0444 46.1321 65.6992 47.3101 65.6992 48.5993C65.6992 49.4519 65.412 50.2581 64.8932 50.9076Z" fill="white"/>
<defs>
<linearGradient id="paint0_linear_5359_37394" x1="50" y1="0" x2="50" y2="100" gradientUnits="userSpaceOnUse">
<stop stop-color="#7C2AAF"/>
<stop offset="1" stop-color="#3135EF"/>
</linearGradient>
</defs>
</svg>
