<svg width="75" height="42" viewBox="0 0 75 42" fill="none" xmlns="http://www.w3.org/2000/svg">
<path d="M53.66 0C49.67 0 45.88 1.02 42.65 2.88V14.34H33.71C33.19 16.17 32.9 18.15 32.9 20.26L32.89 21.67C32.89 28.91 27.27 33.63 20.84 33.63C14.41 33.63 8.78999 28.91 8.78999 21.67V0H0V21.67C0 34.04 9.52 41.94 20.84 41.94C31.99 41.94 41.59 34.05 41.59 21.67L41.6 20.26C41.6 13.02 47.22 8.29999 53.65 8.29999C60.08 8.29999 65.7 13.02 65.7 20.26V37.3H74.49V20.26C74.5 7.90001 64.98 0 53.66 0Z" fill="white"/>
</svg>
