<svg width="133" height="40" viewBox="0 0 133 40" fill="none" xmlns="http://www.w3.org/2000/svg">
<path d="M49.9784 0H55.2823V37.0661H49.9784V0Z" fill="white"/>
<path d="M58.2805 24.9896C58.2805 17.376 63.9876 12.5516 70.7803 12.5516C77.6246 12.5516 83.3834 17.3863 83.3834 24.9896C83.3834 32.6033 77.6246 37.5826 70.7803 37.5826C63.9876 37.5826 58.2805 32.593 58.2805 24.9896ZM78.0899 24.9896C78.0899 20.6198 74.7918 17.7376 70.7803 17.7376C66.8205 17.7376 63.5224 20.6198 63.5224 24.9896C63.5224 29.5144 66.8205 32.4483 70.7803 32.4483C74.7918 32.438 78.0899 29.5144 78.0899 24.9896Z" fill="white"/>
<path d="M98.4059 12.5413C102.262 12.5413 105.664 14.0289 107.928 16.7045L103.813 20C102.531 18.5124 100.515 17.686 98.4059 17.686C94.3944 17.686 90.8378 20.5165 90.8378 24.9897C90.8378 29.4628 94.3841 32.5 98.4059 32.5C100.515 32.5 102.521 31.6219 103.813 30.1343L107.98 33.3678C105.716 36.0434 102.324 37.5826 98.4059 37.5826C91.5099 37.5826 85.596 32.593 85.596 24.9897C85.596 17.376 91.5099 12.5413 98.4059 12.5413Z" fill="white"/>
<path d="M115.961 25.9091V37.0661H110.709V0H115.961V20.9711L123.581 13.0579H130.684L120.449 23.4917L133 37.0661H126.207L115.961 25.9091Z" fill="white"/>
<path d="M33.922 13.5124C31.3993 13.5124 29.0007 14.1529 26.9639 15.3306V22.5723H21.3085C20.9777 23.7293 20.8019 24.9793 20.8019 26.312L20.7916 27.2004C20.7916 31.7769 17.2453 34.7624 13.1718 34.7624C9.10859 34.7624 5.552 31.7769 5.552 27.2004V13.5124H0V27.2004C0 35.0103 6.01725 40 13.1718 40C20.2229 40 26.2919 35.0103 26.2919 27.2004L26.3022 26.312C26.3022 21.7355 29.8485 18.75 33.922 18.75C37.9852 18.75 41.5418 21.7355 41.5418 26.312V37.0764H47.0938V26.312C47.0938 18.4917 41.0766 13.5124 33.922 13.5124Z" fill="white"/>
</svg>
